<?xml version="1.0" standalone="no"?><!DOCTYPE svg PUBLIC "-//W3C//DTD SVG 1.1//EN" "http://www.w3.org/Graphics/SVG/1.1/DTD/svg11.dtd"><svg t="1626340327431" class="icon" viewBox="0 0 1024 1024" version="1.1" xmlns="http://www.w3.org/2000/svg" p-id="7340" xmlns:xlink="http://www.w3.org/1999/xlink" width="200" height="200"><defs><style type="text/css"></style></defs><path d="M504 745c-8.2 0-16.4-3.1-22.6-9.4-12.5-12.5-12.5-32.8 0-45.3L666.7 505 481.4 319.6c-12.5-12.5-12.5-32.8 0-45.3s32.8-12.5 45.3 0l208 208c12.5 12.5 12.5 32.8 0 45.3l-208 208c-6.3 6.3-14.5 9.4-22.7 9.4z" fill="rgb(255, 145, 0)" p-id="7341"></path><path d="M504 953c-60.5 0-119.1-11.8-174.4-35.2-53.4-22.6-101.3-54.9-142.4-96-41.1-41.1-73.4-89-96-142.4C67.8 624.1 56 565.5 56 505s11.8-119.1 35.2-174.4c22.6-53.4 54.9-101.3 96-142.4 41.1-41.1 89-73.4 142.4-96C384.9 68.8 443.5 57 504 57s119.1 11.8 174.4 35.2c53.4 22.6 101.3 54.9 142.4 96 41.1 41.1 73.4 89 96 142.4C940.2 385.9 952 444.5 952 505s-11.8 119.1-35.2 174.4c-22.6 53.4-54.9 101.3-96 142.4-41.1 41.1-89 73.4-142.4 96C623.1 941.2 564.5 953 504 953z m0-832c-211.7 0-384 172.3-384 384s172.3 384 384 384 384-172.3 384-384-172.3-384-384-384z" fill="rgb(255, 145, 0)" p-id="7342"></path><path d="M694.7 537H296c-17.7 0-32-14.3-32-32s14.3-32 32-32h398.7c17.7 0 32 14.3 32 32s-14.4 32-32 32z" fill="rgb(255, 145, 0)" p-id="7343"></path></svg>