<?xml version="1.0" standalone="no"?><!DOCTYPE svg PUBLIC "-//W3C//DTD SVG 1.1//EN" "http://www.w3.org/Graphics/SVG/1.1/DTD/svg11.dtd"><svg t="1626349031697" class="icon" viewBox="0 0 1024 1024" version="1.1" xmlns="http://www.w3.org/2000/svg" p-id="13446" xmlns:xlink="http://www.w3.org/1999/xlink" width="200" height="200"><defs><style type="text/css"></style></defs><path d="M429.495474 354.38501v272.925351c60.142365-34.995557 179.817172-104.986672 233.47036-136.462676-54.493082-31.915948-173.807935-101.687091-233.47036-136.462675z m12.248445-88.69874c6.419185 3.719528 65.14173 38.015174 128.603674 75.080469l35.885444 20.957339c63.561931 37.125287 122.944392 71.830881 130.563424 76.300313 19.447531 11.338561 31.086054 30.926074 31.206039 52.38335 0.119985 21.567262-11.408552 41.374747-30.846084 52.93328-13.448293 8.028981-276.444904 161.989435-296.612344 173.21801-10.55866 5.82926-22.327165 8.808882-34.085673 8.808881-10.798629 0-21.607257-2.529679-31.326023-7.47905-21.127318-10.898616-33.725718-31.146046-33.725719-54.253113V318.399578c0-23.217053 13.328308-44.354369 34.695596-55.133001 20.507397-10.348686 45.114273-9.468798 65.641666 2.419693z m209.913351-172.478103H372.412721c-154.220421 0-279.23455 125.014129-279.23455 279.23455v279.234551c0 154.220421 125.014129 279.23455 279.23455 279.23455h279.23455C805.867693 930.911818 930.881822 805.897689 930.881822 651.677268V372.442717c0.009999-154.220421-125.014129-279.23455-279.224552-279.23455zM698.191362 0.129983C878.108521 0.129983 1023.970004 145.981467 1023.970004 325.908625v372.312734c0 179.917159-145.851484 325.778641-325.778642 325.778641H325.878629C145.951471 1024 0.099987 878.138518 0.099987 698.221359V325.908625C0.099987 145.981467 145.951471 0.129983 325.878629 0.129983h372.312733z" p-id="13447" fill="#ffffff"></path></svg>